<svg xmlns="http://www.w3.org/2000/svg" width="48" height="48" fill="none"><mask id="a" width="48" height="48" x="0" y="0" maskUnits="userSpaceOnUse" style="mask-type:luminance"><path fill="#fff" d="M48 0H0v48h48z"/></mask><g mask="url(#a)"><path fill="#007BFF" fill-rule="evenodd" d="M4.417 24.101A5.28 5.28 0 0 0 .171 29.28v13.44A5.28 5.28 0 0 0 5.451 48h13.44a5.28 5.28 0 0 0 5.21-4.417 5.28 5.28 0 0 0 5.179 4.246h13.44a5.28 5.28 0 0 0 5.28-5.28v-13.44a5.28 5.28 0 0 0-4.417-5.21 5.28 5.28 0 0 0 4.246-5.179V5.28A5.28 5.28 0 0 0 42.549 0h-13.44a5.28 5.28 0 0 0-5.21 4.417A5.28 5.28 0 0 0 18.72.171H5.28A5.28 5.28 0 0 0 0 5.451v13.44a5.28 5.28 0 0 0 4.417 5.21" clip-rule="evenodd"/></g></svg>