<svg width="633" height="587" viewBox="0 0 633 587" fill="none" xmlns="http://www.w3.org/2000/svg">
<g opacity="0.7" filter="url(#filter0_n_919_4862)">
<mask id="mask0_919_4862" style="mask-type:luminance" maskUnits="userSpaceOnUse" x="-1" y="0" width="793" height="792">
<path d="M-0.000488281 416.099L405.798 0L791.004 375.671L385.206 791.769L-0.000488281 416.099Z" fill="white"/>
</mask>
<g mask="url(#mask0_919_4862)">
<path d="M269.388 139.517C274.263 134.519 279.955 130.737 286.415 128.251C313.086 117.987 326.974 117.643 361.888 135.462C393.303 151.496 423.505 181.408 444.752 217.528C463.15 248.802 473.351 281.004 481.47 308.731C482.236 311.354 483.002 313.982 483.769 316.616C491.689 343.79 499.878 371.886 511.678 398.293C520.654 418.381 549.847 443.388 571.48 454.141C599.939 468.285 631.602 466.001 646.81 448.711C656.781 437.359 660.086 419.565 655.879 399.893C650.349 374.032 622.672 337.687 597.697 313.137C595.933 311.404 594.132 309.669 592.319 307.925C579.042 295.136 562.515 279.221 554.795 258.582C547.925 240.223 550.87 223.004 560.931 212.684C565.899 207.59 572.602 204.178 580.72 203.138C605.274 199.993 637.576 219.238 652.726 246.038C659.384 257.821 656.531 269.458 646.348 272.026C636.164 274.596 622.507 267.124 615.848 255.342C613.05 250.394 605.582 245.944 601.048 246.523C596.515 247.106 593.828 252.855 595.722 257.919C598.31 264.839 607.171 273.373 616.553 282.407C618.549 284.329 620.532 286.241 622.473 288.147C653.794 318.934 690.338 366.212 698.969 406.574C705.542 437.306 700.178 465.329 684.253 483.459C672.178 497.227 654.294 505.319 632.559 506.883C610.826 508.45 587.367 503.329 564.725 492.076C548.01 483.767 529.17 470.473 513.032 455.598C499.773 443.378 481.915 424.214 472.127 402.311C458.726 372.32 450.005 342.397 441.57 313.458C440.809 310.846 440.049 308.237 439.286 305.634C431.803 280.066 423.255 252.997 408.442 227.813C393.909 203.109 374.255 183.159 354.523 173.089C334.241 162.736 332.722 162.616 313.885 169.865C301.944 174.465 296.942 188.805 294.851 200.027C289.076 231.038 295.911 270.664 314.094 311.606C328.304 343.604 349.042 376.79 377.488 413.063C386.464 424.506 396.139 436.158 405.494 447.424C427.137 473.489 449.518 500.441 467.825 529.951C488.966 564.029 508.906 614.887 501.469 655.426C496.845 680.64 482.022 697.781 458.6 704.993C432.1 713.151 399.738 706.309 367.476 685.725C328.477 660.845 294.059 618.426 279.794 577.664C272.83 557.765 270.286 539.208 267.831 521.262C267.195 516.632 266.596 512.257 265.921 507.837C260.506 472.397 250.308 435.974 235.611 399.583C220.635 362.496 207.204 337.403 190.339 335.481C180.056 334.312 174.789 349.314 175.805 363.889C176.749 377.411 180.521 392.113 184.515 407.676C186.258 414.474 188.062 421.505 189.649 428.548C194.393 449.604 199.336 480.261 187.554 503.303C181.595 514.961 171.036 523.399 157.823 527.059C142.86 531.205 125.608 528.821 109.242 520.348C97.2601 514.144 89.2705 500.732 91.3969 490.389C93.5213 480.043 104.961 476.691 116.943 482.894C128.764 489.013 141.846 483.061 146.652 473.664C152.133 462.944 152.139 446.647 146.671 422.378C145.244 416.04 143.609 409.67 141.878 402.924C137.54 386.017 133.053 368.534 131.835 351.048C130.549 332.636 134.856 314.037 145.914 302.694C153.628 294.784 164.626 290.405 179.306 292.077C196.913 294.085 222.979 303.971 247.153 339.68C260.738 359.741 269.924 382.49 276.003 397.543C292.244 437.761 303.517 478.022 309.503 517.204C310.231 521.965 310.881 526.714 311.511 531.306C313.749 547.646 315.863 563.081 321.126 578.117C330.651 605.338 354.482 634.748 380.424 651.3C393.745 659.797 413.679 668.682 432.988 662.735C446.79 658.486 455.188 648.69 457.953 633.622C462.315 609.838 452.257 573.711 432.328 541.585C416.553 516.159 396.7 492.248 375.677 466.933C366.002 455.281 355.999 443.233 346.4 430.996C314.412 390.207 290.891 352.429 274.488 315.5C252.352 265.66 244.135 216.876 251.35 178.135C254.427 161.61 260.559 148.57 269.388 139.517Z" fill="#FFC805"/>
</g>
</g>
<defs>
<filter id="filter0_n_919_4862" x="91.0542" y="121.166" width="610.659" height="587.181" filterUnits="userSpaceOnUse" color-interpolation-filters="sRGB">
<feFlood flood-opacity="0" result="BackgroundImageFix"/>
<feBlend mode="normal" in="SourceGraphic" in2="BackgroundImageFix" result="shape"/>
<feTurbulence type="fractalNoise" baseFrequency="2 2" stitchTiles="stitch" numOctaves="3" result="noise" seed="4291" />
<feColorMatrix in="noise" type="luminanceToAlpha" result="alphaNoise" />
<feComponentTransfer in="alphaNoise" result="coloredNoise1">
<feFuncA type="discrete" tableValues="1 1 1 1 1 1 1 1 1 1 1 1 1 1 1 1 1 1 1 1 1 1 1 1 1 1 1 1 1 1 1 1 1 1 1 1 1 1 1 1 1 1 1 1 1 1 1 1 1 1 1 0 0 0 0 0 0 0 0 0 0 0 0 0 0 0 0 0 0 0 0 0 0 0 0 0 0 0 0 0 0 0 0 0 0 0 0 0 0 0 0 0 0 0 0 0 0 0 0 0 "/>
</feComponentTransfer>
<feComposite operator="in" in2="shape" in="coloredNoise1" result="noise1Clipped" />
<feFlood flood-color="rgba(0, 0, 0, 0.25)" result="color1Flood" />
<feComposite operator="in" in2="noise1Clipped" in="color1Flood" result="color1" />
<feMerge result="effect1_noise_919_4862">
<feMergeNode in="shape" />
<feMergeNode in="color1" />
</feMerge>
</filter>
</defs>
</svg>
