<svg xmlns="http://www.w3.org/2000/svg" width="22" height="40" fill="none"><mask id="a" width="23" height="40" x="-1" y="0" maskUnits="userSpaceOnUse" style="mask-type:luminance"><path fill="#fff" d="M21.17 0H0v39.316h21.17z"/></mask><g mask="url(#a)"><mask id="b" width="202" height="183" x="-71" y="-54" maskUnits="userSpaceOnUse" style="mask-type:luminance"><path fill="#fff" d="M130.756 54.407-16.073-53.173-70.03 20.47 76.797 128.05z"/></mask><g mask="url(#b)"><mask id="c" width="202" height="183" x="-71" y="-54" maskUnits="userSpaceOnUse" style="mask-type:luminance"><path fill="#fff" d="M130.756 54.407-16.073-53.173-70.03 20.47 76.797 128.05z"/></mask><g mask="url(#c)"><path fill="#FFBF00" d="M16.613 1.887c-.88 3.213-2.396 6.208-3.74 9.244-2.533 7.056-5.082 14.109-7.729 21.123 3.208-6.81 6.288-13.654 9.679-20.396 1.152-2.295 2.448-4.655 3.674-6.95.502-.915.954-1.83 1.417-2.767.23-.617.712-1.303.615-1.964-.01-.006-.033-.015-.012-.02.13.047.106.277.1.377-.265 2.094-1.152 4.061-1.89 6.025-2.891 7.047-6.52 13.754-9.628 20.71-1.804 3.72-3.55 8.098-5.703 11.562a.826.826 0 0 1-1.09.08c-.963-.895.325-3.541.597-4.7A125 125 0 0 1 .97 38.289c-.16.322-.322.655-.505.968 2.709-9.45 6.386-18.674 10.547-27.611 1.604-3.5 2.566-7.336 4.338-10.742.683-.623 1.551.21 1.259.981z"/></g></g></g></svg>