<svg width="651" height="576" viewBox="0 0 651 576" fill="none" xmlns="http://www.w3.org/2000/svg">
<g opacity="0.7" filter="url(#filter0_n_919_4868)">
<mask id="mask0_919_4868" style="mask-type:luminance" maskUnits="userSpaceOnUse" x="-141" y="-216" width="793" height="792">
<path d="M-140.001 200.099L265.798 -216L651.004 159.671L245.206 575.77L-140.001 200.099Z" fill="white"/>
</mask>
<g mask="url(#mask0_919_4868)">
<path d="M129.388 -76.4829C134.262 -81.4811 139.954 -85.2626 146.414 -87.7486C173.085 -98.0129 186.974 -98.3574 221.888 -80.5375C253.303 -64.5042 283.505 -34.5923 304.752 1.52822C323.15 32.8024 333.35 65.0037 341.469 92.7316C342.236 95.3543 343.002 97.9817 343.769 100.616C351.689 127.79 359.878 155.886 371.678 182.293C380.654 202.381 409.847 227.389 431.48 238.141C459.939 252.285 491.602 250.001 506.81 232.711C516.781 221.359 520.086 203.566 515.879 183.893C510.348 158.032 482.672 121.687 457.696 97.1371C455.933 95.4037 454.132 93.6687 452.319 91.9253C439.042 79.1364 422.515 63.2213 414.795 42.5824C407.925 24.2229 410.87 7.00406 420.931 -3.31606C425.899 -8.40994 432.602 -11.8222 440.72 -12.8616C465.273 -16.007 497.576 3.23793 512.726 30.0378C519.384 41.8213 516.531 53.4582 506.348 56.0262C496.164 58.5956 482.507 51.1239 475.847 39.3418C473.049 34.3943 465.581 29.9442 461.048 30.5234C456.515 31.1058 453.828 36.8547 455.722 41.9193C458.309 48.8396 467.17 57.3731 476.553 66.4072C478.549 68.3294 480.532 70.2411 482.472 72.1474C513.794 102.934 550.338 150.212 558.969 190.575C565.542 221.306 560.177 249.329 544.252 267.46C532.177 281.227 514.294 289.319 492.558 290.883C470.825 292.45 447.367 287.329 424.725 276.076C408.01 267.768 389.17 254.473 373.032 239.598C359.773 227.378 341.915 208.214 332.127 186.311C318.726 156.32 310.005 126.397 301.57 97.4577C300.809 94.8456 300.048 92.2369 299.286 89.6343C291.803 64.0665 283.254 36.9967 268.441 11.8134C253.908 -12.8913 234.254 -32.8408 214.522 -42.9113C194.24 -53.264 192.722 -53.3834 173.885 -46.1352C161.944 -41.5345 156.942 -27.1952 154.851 -15.9732C149.076 15.038 155.91 54.6636 174.094 95.6056C188.304 127.604 209.042 160.79 237.488 197.064C246.463 208.506 256.138 220.158 265.493 231.424C287.137 257.489 309.518 284.441 327.824 313.951C348.966 348.029 368.905 398.887 361.469 439.426C356.845 464.64 342.022 481.781 318.599 488.993C292.1 497.151 259.738 490.309 227.476 469.726C188.477 444.845 154.059 402.426 139.794 361.664C132.83 341.765 130.286 323.208 127.83 305.262C127.194 300.632 126.596 296.257 125.92 291.837C120.506 256.397 110.308 219.974 95.6111 183.583C80.6343 146.496 67.2034 121.403 50.3386 119.481C40.0559 118.312 34.7883 133.314 35.8048 147.889C36.7483 161.411 40.5204 176.113 44.5144 191.676C46.258 198.474 48.0621 205.505 49.6491 212.548C54.3924 233.604 59.3362 264.262 47.5534 287.303C41.5947 298.961 31.0356 307.399 17.8227 311.059C2.85979 315.205 -14.3921 312.822 -30.758 304.348C-42.7402 298.144 -50.7298 284.733 -48.6034 274.389C-46.4789 264.044 -35.0397 260.691 -23.0575 266.894C-11.2367 273.013 1.84582 267.061 6.65219 257.664C12.1324 246.944 12.1389 230.647 6.67042 206.378C5.2438 200.041 3.60914 193.67 1.87749 186.924C-2.4599 170.017 -6.94678 152.534 -8.16543 135.048C-9.45144 116.636 -5.14424 98.0368 5.91328 86.6946C13.628 78.784 24.6257 74.4051 39.3059 76.0774C56.9129 78.0847 82.9784 87.9706 107.153 123.68C120.737 143.741 129.924 166.49 136.003 181.543C152.244 221.762 163.517 262.022 169.502 301.204C170.231 305.965 170.88 310.714 171.51 315.306C173.748 331.646 175.863 347.081 181.126 362.117C190.651 389.338 214.481 418.748 240.423 435.3C253.745 443.797 273.678 452.682 292.987 446.735C306.79 442.486 315.188 432.69 317.953 417.622C322.315 393.838 312.257 357.711 292.328 325.585C276.553 300.159 256.699 276.249 235.677 250.933C226.002 239.281 215.999 227.233 206.4 214.996C174.412 174.207 150.891 136.429 134.488 99.4997C112.352 49.66 104.134 0.876198 111.35 -37.8652C114.427 -54.3896 120.559 -67.4295 129.388 -76.4829Z" fill="#FFC805"/>
</g>
</g>
<defs>
<filter id="filter0_n_919_4868" x="-48.946" y="-94.834" width="610.659" height="587.181" filterUnits="userSpaceOnUse" color-interpolation-filters="sRGB">
<feFlood flood-opacity="0" result="BackgroundImageFix"/>
<feBlend mode="normal" in="SourceGraphic" in2="BackgroundImageFix" result="shape"/>
<feTurbulence type="fractalNoise" baseFrequency="2 2" stitchTiles="stitch" numOctaves="3" result="noise" seed="4291" />
<feColorMatrix in="noise" type="luminanceToAlpha" result="alphaNoise" />
<feComponentTransfer in="alphaNoise" result="coloredNoise1">
<feFuncA type="discrete" tableValues="1 1 1 1 1 1 1 1 1 1 1 1 1 1 1 1 1 1 1 1 1 1 1 1 1 1 1 1 1 1 1 1 1 1 1 1 1 1 1 1 1 1 1 1 1 1 1 1 1 1 1 0 0 0 0 0 0 0 0 0 0 0 0 0 0 0 0 0 0 0 0 0 0 0 0 0 0 0 0 0 0 0 0 0 0 0 0 0 0 0 0 0 0 0 0 0 0 0 0 0 "/>
</feComponentTransfer>
<feComposite operator="in" in2="shape" in="coloredNoise1" result="noise1Clipped" />
<feFlood flood-color="rgba(0, 0, 0, 0.25)" result="color1Flood" />
<feComposite operator="in" in2="noise1Clipped" in="color1Flood" result="color1" />
<feMerge result="effect1_noise_919_4868">
<feMergeNode in="shape" />
<feMergeNode in="color1" />
</feMerge>
</filter>
</defs>
</svg>
