<svg xmlns="http://www.w3.org/2000/svg" width="42" height="53" fill="none"><mask id="a" width="42" height="53" x="0" y="0" maskUnits="userSpaceOnUse" style="mask-type:luminance"><path fill="#fff" d="M41.584 0H0v52.925h41.584z"/></mask><g mask="url(#a)"><mask id="b" width="202" height="182" x="-87" y="-54" maskUnits="userSpaceOnUse" style="mask-type:luminance"><path fill="#fff" d="M114.122 53.652-32.706-53.928l-53.959 73.642L60.164 127.295z"/></mask><g mask="url(#b)"><mask id="c" width="202" height="182" x="-87" y="-54" maskUnits="userSpaceOnUse" style="mask-type:luminance"><path fill="#fff" d="M114.122 53.652-32.706-53.928l-53.959 73.642L60.164 127.295z"/></mask><g mask="url(#c)"><path fill="#FFBF00" d="M37.658 1.102c1.5.567-.56 2.552-.956 3.382a37 37 0 0 0-2.983 4.92c2.277-3.18 5.109-6.025 7.17-9.33l-.009.003q-.018.015-.038.03-.036.031-.074.068c-.003.006-.011-.003-.008-.006.044-.06.076-.112.138-.15a.024.024 0 0 1 .036.014c-.378 1.565-1.48 2.939-2.248 4.36-2.575 4.228-5.51 8.213-8.364 12.285-7.859 11.262-15.555 22.67-24.138 33.403-.712.665-2.08 3.293-3.196 2.522-.239-.189-.319-.481-.257-.77.145-.677.603-1.182.972-1.755.603-.895 1.314-1.828 1.97-2.708-1.571 1.878-3.382 3.535-5.056 5.316 1.468-2.244 3.255-4.41 4.764-6.672 2-3 4.055-6.072 6.146-9.028 5.523-7.91 11.361-15.591 16.754-23.589a.4.4 0 0 0-.053.08c2.313-3.382 4.723-6.701 7.12-10.027.541-.718 1.017-1.488 1.61-2.159.172-.186.467-.25.706-.189zm-28.42 41.72c4.14-5.19 8.293-10.381 12.05-15.86 2.49-3.62 4.826-7.342 7.094-11.105C22.023 25.12 15.576 33.62 9.238 42.822"/></g></g></g></svg>