<svg xmlns="http://www.w3.org/2000/svg" width="68" height="28" fill="none"><mask id="a" width="68" height="28" x="0" y="0" maskUnits="userSpaceOnUse" style="mask-type:luminance"><path fill="#fff" d="M67.29 0H0v27.219h67.29z"/></mask><g mask="url(#a)"><mask id="b" width="201" height="182" x="-117" y="-118" maskUnits="userSpaceOnUse" style="mask-type:luminance"><path fill="#fff" d="M83.88-9.858-62.95-117.438l-53.958 73.643L29.921 63.785z"/></mask><g mask="url(#b)"><mask id="c" width="201" height="182" x="-117" y="-118" maskUnits="userSpaceOnUse" style="mask-type:luminance"><path fill="#fff" d="M83.88-9.858-62.95-117.438l-53.958 73.643L29.921 63.785z"/></mask><g mask="url(#c)"><path fill="#FFBF00" d="M14.882 20.034c15.25-5.296 29.861-12.222 44.936-17.966 1.39-.502 2.773-1.04 4.167-1.539-3.267 1.95-6.675 3.68-10.148 5.328-11.852 5.225-23.834 10.178-35.981 14.682.067-.018.088-.021.106-.027 6.683-2.383 13.323-4.858 20.13-6.923C46.74 11.061 54.51 6.24 63.087 3.462c1.08-.29 2.176-.892 3.317-.874.974.224.847 1.3.18 1.78-7.038 5.444-16.167 6.882-24.466 9.546a208 208 0 0 1-25.76 8.736c-3.553 1.196-7.13 2.36-10.815 3.084-1.751.386-3.57.626-5.307 1.104.59-.33 1.329-.579 1.993-.818a4.7 4.7 0 0 1-.907.047c-1.01-.198-.735-1.45.142-1.58 4.507-1.388 8.96-2.891 13.418-4.45zm37.77-10.742c3.539-1.066 7.112-2.39 10.343-4.241-3.529 1.202-6.937 2.744-10.345 4.241z"/></g></g></g></svg>