<svg xmlns="http://www.w3.org/2000/svg" width="1440" height="530" fill="none"><g filter="url(#a)" opacity=".16"><mask id="b" width="1786" height="1059" x="-196" y="0" maskUnits="userSpaceOnUse" style="mask-type:luminance"><path fill="#fff" d="M-196 526.582 1450.49 0l139.33 532.164L-56.671 1058.75z"/></mask><g mask="url(#b)"><path fill="#FFC805" d="M897.677 176.515c19.777-6.325 39.076-10.96 57.643-13.801 76.66-11.732 107.34-11.145 149.95 15.355 38.34 23.843 48.42 66.181 27.66 116.157-17.98 43.271-55.4 87.164-89.05 124.91-3.19 3.57-6.39 7.146-9.59 10.732-33.07 36.989-67.257 75.233-90.511 111.487-17.692 27.58-.735 63.273 26.199 79.306 35.432 21.09 108.152 20.422 172.992-1.585 42.54-14.45 82.56-38.029 109.8-64.691 35.81-35.05 43.07-85.813 34.4-120.575-.62-2.454-1.31-4.914-2.01-7.385-5.1-18.13-11.45-40.691 9.98-68.913 19.05-25.105 57.23-47.942 98.06-61.003 20.15-6.446 40.96-10.51 60.44-11.289 58.93-2.359 93.25 25.852 76.52 62.886-7.36 16.283-35.03 31.652-61.8 34.322-26.78 2.672-42.52-8.365-35.16-24.646 3.08-6.837-4.85-13.36-15.73-12.927-10.88.438-27.31 7.934-32.57 14.859-7.19 9.463-3.78 21.56-.17 34.367.76 2.724 1.52 5.434 2.2 8.134 10.88 43.594 2.6 109.666-53.29 164.37-42.55 41.651-105.92 78.775-173.87 101.852-51.55 17.526-105.18 27.012-155.09 27.467-49.912.457-91.198-8.172-119.391-24.951-20.812-12.389-37.008-31.615-44.44-52.754-6.111-17.365-9.341-44.377 9.948-74.448 26.413-41.176 62.822-81.907 98.036-121.298 3.178-3.556 6.352-7.107 9.51-10.65 31.044-34.805 62.557-71.702 77.037-106.545 14.19-34.181 8.53-62.381-15.55-77.357-24.753-15.395-27.816-15.67-81.956-7.385-34.33 5.26-71.639 24.085-96.893 38.955-69.78 41.094-128.195 94.676-164.49 150.878-28.371 43.924-44.813 89.932-50.285 140.656-1.722 16.001-2.316 32.335-2.892 48.13-1.329 36.539-2.701 74.322-17.613 115.224-17.216 47.232-68.032 116.846-159.006 170.574-56.582 33.417-120.311 55.253-184.302 63.142-72.397 8.926-129.763-2.681-161.532-32.681-38.404-36.264-34.497-95.67 9.944-151.335 21.694-27.174 50.47-52.217 78.309-76.435 7.178-6.248 13.964-12.152 20.668-18.122 53.755-47.87 98.977-97.417 134.41-147.261 36.111-50.796 53.411-85.415 20.479-89.262-20.084-2.342-59.194 17.352-83.919 36.947-22.937 18.179-41.937 38.153-62.046 59.296-8.786 9.236-17.871 18.787-27.449 28.339-28.636 28.556-74.574 69.985-142.627 99.952-34.426 15.162-72.855 25.665-108.2 29.57-40.027 4.422-72.944-.072-92.695-12.656-14.461-9.212-6.969-27.776 16.739-41.467 23.707-13.694 54.646-17.321 69.107-8.109 14.268 9.087 53.565 2.103 81.32-10.118 31.66-13.942 61.778-35.766 94.78-68.679 8.621-8.595 16.852-17.249 25.568-26.414 21.85-22.97 44.44-46.721 74.105-70.23 31.231-24.755 74.907-49.337 119.779-63.692 31.302-10.011 63.182-15.045 91.85-11.697 34.38 4.017 72.505 19.224 58.835 68.871-7.673 27.891-29.822 59.049-44.479 79.667-39.163 55.086-89.15 109.853-148.582 162.777-7.219 6.431-14.587 12.84-21.707 19.037-25.343 22.051-49.281 42.881-65.672 63.414-29.68 37.173-32.457 78.358-6.914 102.482 13.121 12.385 39.83 25.788 92.586 19.282 37.708-4.649 73.971-17.133 107.786-37.103 53.373-31.522 98.351-80.662 114.586-125.189 12.844-35.24 14.065-68.76 15.354-104.249.594-16.335 1.21-33.224 3.052-50.337 6.149-57.038 25.054-109.406 57.79-160.1 44.183-68.415 116.524-134.366 203.699-185.703 37.183-21.897 74.535-38.897 110.36-50.355"/></g></g><defs><filter id="a" width="1694.03" height="795.592" x="-159.629" y="155.415" color-interpolation-filters="sRGB" filterUnits="userSpaceOnUse"><feFlood flood-opacity="0" result="BackgroundImageFix"/><feBlend in="SourceGraphic" in2="BackgroundImageFix" result="shape"/><feTurbulence baseFrequency="2 2" numOctaves="3" result="noise" seed="4291" stitchTiles="stitch" type="fractalNoise"/><feColorMatrix in="noise" result="alphaNoise" type="luminanceToAlpha"/><feComponentTransfer in="alphaNoise" result="coloredNoise1"><feFuncA tableValues="1 1 1 1 1 1 1 1 1 1 1 1 1 1 1 1 1 1 1 1 1 1 1 1 1 1 1 1 1 1 1 1 1 1 1 1 1 1 1 1 1 1 1 1 1 1 1 1 1 1 1 0 0 0 0 0 0 0 0 0 0 0 0 0 0 0 0 0 0 0 0 0 0 0 0 0 0 0 0 0 0 0 0 0 0 0 0 0 0 0 0 0 0 0 0 0 0 0 0 0" type="discrete"/></feComponentTransfer><feComposite in="coloredNoise1" in2="shape" operator="in" result="noise1Clipped"/><feFlood flood-color="rgba(0, 0, 0, 0.25)" result="color1Flood"/><feComposite in="color1Flood" in2="noise1Clipped" operator="in" result="color1"/><feMerge result="effect1_noise_919_4873"><feMergeNode in="shape"/><feMergeNode in="color1"/></feMerge></filter></defs></svg>