<svg xmlns="http://www.w3.org/2000/svg" width="8" height="34" fill="none"><mask id="a" width="9" height="39" x="-1" y="-5" maskUnits="userSpaceOnUse" style="mask-type:luminance"><path fill="#fff" d="M7.56-4.663H0v37.804h7.56z"/></mask><g mask="url(#a)"><mask id="b" width="202" height="182" x="-22" y="-50" maskUnits="userSpaceOnUse" style="mask-type:luminance"><path fill="#fff" d="M179.144 58.062 32.316-49.518l-53.958 73.642 146.828 107.581z"/></mask><g mask="url(#b)"><mask id="c" width="202" height="182" x="-22" y="-50" maskUnits="userSpaceOnUse" style="mask-type:luminance"><path fill="#fff" d="M179.144 58.062 32.316-49.518l-53.958 73.642 146.828 107.581z"/></mask><g mask="url(#c)"><path fill="#FFBF00" d="M1.092-4.663c.798-.005.827.934.966 1.516.177.83.351 1.656.523 2.49.732 3.472 1.37 6.966 1.896 10.48q-.264-3.266-.434-6.538c-.121-2.203-.34-4.616-.402-6.825C4.633.67 5.437 4.942 5.877 9.25c.611 6.153 1.045 12.331 1.24 18.513q.048 1.77.056 3.54c.01.686.039 1.75-.895 1.758-1.145-.091-.859-1.778-1.033-2.599-.166-1.91-.28-3.83-.45-5.741-.549-6.335-1.393-12.644-2.468-18.91.437 8.582-.065 17.19.475 25.765C.611 23.253 1.232 14.44.85 5.887a259 259 0 0 0-.328-7.103c.098-.889-.744-3.358.567-3.444z"/></g></g></g></svg>