<svg xmlns="http://www.w3.org/2000/svg" width="633" height="587" fill="none"><g filter="url(#a)" opacity=".7"><mask id="b" width="793" height="792" x="-1" y="0" maskUnits="userSpaceOnUse" style="mask-type:luminance"><path fill="#fff" d="M0 416.099 405.798 0l385.206 375.671-405.798 416.098z"/></mask><g mask="url(#b)"><path fill="#FFC805" d="M269.388 139.517c4.875-4.998 10.567-8.78 17.027-11.266 26.671-10.264 40.559-10.608 75.473 7.211 31.415 16.034 61.617 45.946 82.864 82.066 18.398 31.274 28.599 63.476 36.718 91.203q1.149 3.934 2.299 7.885c7.92 27.174 16.109 55.27 27.909 81.677 8.976 20.088 38.169 45.095 59.802 55.848 28.459 14.144 60.122 11.86 75.33-5.43 9.971-11.352 13.276-29.146 9.069-48.818-5.53-25.861-33.207-62.206-58.182-86.756a714 714 0 0 0-5.378-5.212c-13.277-12.789-29.804-28.704-37.524-49.343-6.87-18.359-3.925-35.578 6.136-45.898 4.968-5.094 11.671-8.506 19.789-9.546 24.554-3.145 56.856 16.1 72.006 42.9 6.658 11.783 3.805 23.42-6.378 25.988-10.184 2.57-23.841-4.902-30.5-16.684-2.798-4.948-10.266-9.398-14.8-8.819-4.533.583-7.22 6.332-5.326 11.396 2.588 6.92 11.449 15.454 20.831 24.488a846 846 0 0 1 5.92 5.74c31.321 30.787 67.865 78.065 76.496 118.427 6.573 30.732 1.209 58.755-14.716 76.885-12.075 13.768-29.959 21.86-51.694 23.424-21.733 1.567-45.192-3.554-67.834-14.807-16.715-8.309-35.555-21.603-51.693-36.478-13.259-12.22-31.117-31.384-40.905-53.287-13.401-29.991-22.122-59.914-30.557-88.853q-1.14-3.919-2.284-7.824c-7.483-25.568-16.031-52.637-30.844-77.821-14.533-24.704-34.187-44.654-53.919-54.724-20.282-10.353-21.801-10.473-40.638-3.224-11.941 4.6-16.943 18.94-19.034 30.162-5.775 31.011 1.06 70.637 19.243 111.579 14.21 31.998 34.948 65.184 63.394 101.457 8.976 11.443 18.651 23.095 28.006 34.361 21.643 26.065 44.024 53.017 62.331 82.527 21.141 34.078 41.081 84.936 33.644 125.475-4.624 25.214-19.447 42.355-42.869 49.567-26.5 8.158-58.862 1.316-91.124-19.268-38.999-24.88-73.417-67.299-87.682-108.061-6.964-19.899-9.508-38.456-11.963-56.402-.636-4.63-1.235-9.005-1.91-13.425-5.415-35.44-15.613-71.863-30.31-108.254-14.976-37.087-28.407-62.18-45.272-64.102-10.283-1.169-15.55 13.833-14.534 28.408.944 13.522 4.716 28.224 8.71 43.787 1.743 6.798 3.547 13.829 5.134 20.872 4.744 21.056 9.687 51.713-2.095 74.755-5.959 11.658-16.518 20.096-29.731 23.756-14.963 4.146-32.215 1.762-48.581-6.711-11.982-6.204-19.972-19.616-17.845-29.959 2.124-10.346 13.564-13.698 25.546-7.495 11.821 6.119 24.903.167 29.709-9.23 5.481-10.72 5.487-27.017.019-51.286-1.427-6.338-3.062-12.708-4.793-19.454-4.338-16.907-8.825-34.39-10.043-51.876-1.286-18.412 3.021-37.011 14.079-48.354 7.714-7.91 18.712-12.289 33.392-10.617 17.607 2.008 43.673 11.894 67.847 47.603 13.585 20.061 22.771 42.81 28.85 57.863 16.241 40.218 27.514 80.479 33.5 119.661.728 4.761 1.378 9.51 2.008 14.102 2.238 16.34 4.352 31.775 9.615 46.811 9.525 27.221 33.356 56.631 59.298 73.183 13.321 8.497 33.255 17.382 52.564 11.435 13.802-4.249 22.2-14.045 24.965-29.113 4.362-23.784-5.696-59.911-25.625-92.037-15.775-25.426-35.628-49.337-56.651-74.652-9.675-11.652-19.678-23.7-29.277-35.937-31.988-40.789-55.509-78.567-71.912-115.496-22.136-49.84-30.353-98.624-23.138-137.365 3.077-16.525 9.209-29.565 18.038-38.618"/></g></g><defs><filter id="a" width="610.659" height="587.181" x="91.054" y="121.166" color-interpolation-filters="sRGB" filterUnits="userSpaceOnUse"><feFlood flood-opacity="0" result="BackgroundImageFix"/><feBlend in="SourceGraphic" in2="BackgroundImageFix" result="shape"/><feTurbulence baseFrequency="2 2" numOctaves="3" result="noise" seed="4291" stitchTiles="stitch" type="fractalNoise"/><feColorMatrix in="noise" result="alphaNoise" type="luminanceToAlpha"/><feComponentTransfer in="alphaNoise" result="coloredNoise1"><feFuncA tableValues="1 1 1 1 1 1 1 1 1 1 1 1 1 1 1 1 1 1 1 1 1 1 1 1 1 1 1 1 1 1 1 1 1 1 1 1 1 1 1 1 1 1 1 1 1 1 1 1 1 1 1 0 0 0 0 0 0 0 0 0 0 0 0 0 0 0 0 0 0 0 0 0 0 0 0 0 0 0 0 0 0 0 0 0 0 0 0 0 0 0 0 0 0 0 0 0 0 0 0 0" type="discrete"/></feComponentTransfer><feComposite in="coloredNoise1" in2="shape" operator="in" result="noise1Clipped"/><feFlood flood-color="rgba(0, 0, 0, 0.25)" result="color1Flood"/><feComposite in="color1Flood" in2="noise1Clipped" operator="in" result="color1"/><feMerge result="effect1_noise_919_4862"><feMergeNode in="shape"/><feMergeNode in="color1"/></feMerge></filter></defs></svg>