<svg width="1440" height="530" viewBox="0 0 1440 530" fill="none" xmlns="http://www.w3.org/2000/svg">
<g opacity="0.16" filter="url(#filter0_n_919_4873)">
<mask id="mask0_919_4873" style="mask-type:luminance" maskUnits="userSpaceOnUse" x="-196" y="0" width="1786" height="1059">
<path d="M-196 526.582L1450.49 -4.31274e-05L1589.82 532.164L-56.6715 1058.75L-196 526.582Z" fill="white"/>
</mask>
<g mask="url(#mask0_919_4873)">
<path d="M897.677 176.515C917.454 170.19 936.753 165.555 955.32 162.714C1031.98 150.982 1062.66 151.569 1105.27 178.069C1143.61 201.912 1153.69 244.25 1132.93 294.226C1114.95 337.497 1077.53 381.39 1043.88 419.136C1040.69 422.706 1037.49 426.282 1034.29 429.868C1001.22 466.857 967.033 505.101 943.779 541.355C926.087 568.935 943.044 604.628 969.978 620.661C1005.41 641.751 1078.13 641.083 1142.97 619.076C1185.51 604.626 1225.53 581.047 1252.77 554.385C1288.58 519.335 1295.84 468.572 1287.17 433.81C1286.55 431.356 1285.86 428.896 1285.16 426.425C1280.06 408.295 1273.71 385.734 1295.14 357.512C1314.19 332.407 1352.37 309.57 1393.2 296.509C1413.35 290.063 1434.16 285.999 1453.64 285.22C1512.57 282.861 1546.89 311.072 1530.16 348.106C1522.8 364.389 1495.13 379.758 1468.36 382.428C1441.58 385.1 1425.84 374.063 1433.2 357.782C1436.28 350.945 1428.35 344.422 1417.47 344.855C1406.59 345.293 1390.16 352.789 1384.9 359.714C1377.71 369.177 1381.12 381.274 1384.73 394.081C1385.49 396.805 1386.25 399.515 1386.93 402.215C1397.81 445.809 1389.53 511.881 1333.64 566.585C1291.09 608.236 1227.72 645.36 1159.77 668.437C1108.22 685.963 1054.59 695.449 1004.68 695.904C954.768 696.361 913.482 687.732 885.289 670.953C864.477 658.564 848.281 639.338 840.849 618.199C834.738 600.834 831.508 573.822 850.797 543.751C877.21 502.575 913.619 461.844 948.833 422.453C952.011 418.897 955.185 415.346 958.343 411.803C989.387 376.998 1020.9 340.101 1035.38 305.258C1049.57 271.077 1043.91 242.877 1019.83 227.901C995.077 212.506 992.014 212.231 937.874 220.516C903.544 225.776 866.235 244.601 840.981 259.471C771.201 300.565 712.786 354.147 676.491 410.349C648.12 454.273 631.678 500.281 626.206 551.005C624.484 567.006 623.89 583.34 623.314 599.135C621.985 635.674 620.613 673.457 605.701 714.359C588.485 761.591 537.669 831.205 446.695 884.933C390.113 918.35 326.384 940.186 262.393 948.075C189.996 957.001 132.63 945.394 100.861 915.394C62.4574 879.13 66.3639 819.724 110.805 764.059C132.499 736.885 161.275 711.842 189.114 687.624C196.292 681.376 203.078 675.472 209.782 669.502C263.537 621.632 308.759 572.085 344.192 522.241C380.303 471.445 397.603 436.826 364.671 432.979C344.587 430.637 305.477 450.331 280.752 469.926C257.815 488.105 238.815 508.079 218.706 529.222C209.92 538.458 200.835 548.009 191.257 557.561C162.621 586.117 116.683 627.546 48.6301 657.513C14.2042 672.675 -24.2249 683.178 -59.5701 687.083C-99.5971 691.505 -132.514 687.011 -152.265 674.427C-166.726 665.215 -159.234 646.651 -135.526 632.96C-111.819 619.266 -80.8797 615.639 -66.4187 624.851C-52.151 633.938 -12.8542 626.954 14.9017 614.733C46.5603 600.791 76.6789 578.967 109.681 546.054C118.302 537.459 126.533 528.805 135.249 519.64C157.099 496.67 179.689 472.919 209.354 449.41C240.585 424.655 284.261 400.073 329.133 385.718C360.435 375.707 392.315 370.673 420.983 374.021C455.363 378.038 493.488 393.245 479.818 442.892C472.145 470.783 449.996 501.941 435.339 522.559C396.176 577.645 346.189 632.412 286.757 685.336C279.538 691.767 272.17 698.176 265.05 704.373C239.707 726.424 215.769 747.254 199.378 767.787C169.698 804.96 166.921 846.145 192.464 870.269C205.585 882.654 232.294 896.057 285.05 889.551C322.758 884.902 359.021 872.418 392.836 852.448C446.209 820.926 491.187 771.786 507.422 727.259C520.266 692.019 521.487 658.499 522.776 623.01C523.37 606.675 523.986 589.786 525.828 572.673C531.977 515.635 550.882 463.267 583.618 412.573C627.801 344.158 700.142 278.207 787.317 226.87C824.5 204.973 861.852 187.973 897.677 176.515Z" fill="#FFC805"/>
</g>
</g>
<defs>
<filter id="filter0_n_919_4873" x="-159.629" y="155.415" width="1694.03" height="795.592" filterUnits="userSpaceOnUse" color-interpolation-filters="sRGB">
<feFlood flood-opacity="0" result="BackgroundImageFix"/>
<feBlend mode="normal" in="SourceGraphic" in2="BackgroundImageFix" result="shape"/>
<feTurbulence type="fractalNoise" baseFrequency="2 2" stitchTiles="stitch" numOctaves="3" result="noise" seed="4291" />
<feColorMatrix in="noise" type="luminanceToAlpha" result="alphaNoise" />
<feComponentTransfer in="alphaNoise" result="coloredNoise1">
<feFuncA type="discrete" tableValues="1 1 1 1 1 1 1 1 1 1 1 1 1 1 1 1 1 1 1 1 1 1 1 1 1 1 1 1 1 1 1 1 1 1 1 1 1 1 1 1 1 1 1 1 1 1 1 1 1 1 1 0 0 0 0 0 0 0 0 0 0 0 0 0 0 0 0 0 0 0 0 0 0 0 0 0 0 0 0 0 0 0 0 0 0 0 0 0 0 0 0 0 0 0 0 0 0 0 0 0 "/>
</feComponentTransfer>
<feComposite operator="in" in2="shape" in="coloredNoise1" result="noise1Clipped" />
<feFlood flood-color="rgba(0, 0, 0, 0.25)" result="color1Flood" />
<feComposite operator="in" in2="noise1Clipped" in="color1Flood" result="color1" />
<feMerge result="effect1_noise_919_4873">
<feMergeNode in="shape" />
<feMergeNode in="color1" />
</feMerge>
</filter>
</defs>
</svg>
