<svg xmlns="http://www.w3.org/2000/svg" width="16" height="36" fill="none"><mask id="a" width="16" height="61" x="0" y="-25" maskUnits="userSpaceOnUse" style="mask-type:luminance"><path fill="#fff" d="M15.878-24.32H0v59.73h15.878z"/></mask><g mask="url(#a)"><mask id="b" width="201" height="182" x="-49" y="-50" maskUnits="userSpaceOnUse" style="mask-type:luminance"><path fill="#fff" d="M151.926 58.062 5.098-49.518l-53.959 73.642L97.968 131.705z"/></mask><g mask="url(#b)"><mask id="c" width="201" height="182" x="-49" y="-50" maskUnits="userSpaceOnUse" style="mask-type:luminance"><path fill="#fff" d="M151.926 58.062 5.098-49.518l-53.959 73.642L97.968 131.705z"/></mask><g mask="url(#c)"><path fill="#FFBF00" d="M9.604-20.087c.198-.828.201-1.708.269-2.552.03-.576.089-1.43.839-1.447.945.038.794 1.175.714 1.84a39 39 0 0 0-.34 3.585c-.386 5.744-1.41 11.4-2.554 17.038q0-.001.003-.003v-.012c-1.078 5.19-2.138 10.402-2.95 15.65C7.289 6.378 8.94-1.263 10.74-8.873c.945-3.996 2.082-7.954 3.509-11.805.399-.969.72-1.99 1.27-2.883l.106-.133c.018-.014.027-.003.042 0-.807 1.879-.975 4.014-1.483 6.014-.747 3.777-1.613 7.557-2.516 11.302-3.264 13.598-5.733 27.44-9.64 40.86-.213.355-.727.482-1.06.237-.302-.228-.42-.609-.37-.969.098-1.282.408-2.54.647-3.798.343-2.212.041-4.516.352-6.754.818-8.33 2.19-16.61 3.792-24.82 1.122-5.86 2.735-11.61 4.013-17.429.065-.343.121-.64.201-1.04zM5.443 6.22q.094-.484.183-.968c.165-.869.345-1.734.52-2.596.667-3.25 1.352-6.477 1.928-9.753A230 230 0 0 0 5.443 6.221"/></g></g></g></svg>