<svg xmlns="http://www.w3.org/2000/svg" width="651" height="576" fill="none"><g filter="url(#a)" opacity=".7"><mask id="b" width="793" height="792" x="-141" y="-216" maskUnits="userSpaceOnUse" style="mask-type:luminance"><path fill="#fff" d="M-140.001 200.099 265.798-216l385.206 375.671L245.206 575.77z"/></mask><g mask="url(#b)"><path fill="#FFC805" d="M129.388-76.483c4.874-4.998 10.566-8.78 17.026-11.266 26.671-10.264 40.56-10.608 75.474 7.212 31.415 16.033 61.617 45.945 82.864 82.065 18.398 31.274 28.598 63.476 36.717 91.204q1.15 3.933 2.3 7.884c7.92 27.174 16.109 55.27 27.909 81.677 8.976 20.088 38.169 45.096 59.802 55.848 28.459 14.144 60.122 11.86 75.33-5.43 9.971-11.352 13.276-29.145 9.069-48.818-5.531-25.861-33.207-62.206-58.183-86.756a677 677 0 0 0-5.377-5.212c-13.277-12.789-29.804-28.704-37.524-49.343-6.87-18.36-3.925-35.578 6.136-45.898 4.968-5.094 11.671-8.506 19.789-9.546 24.553-3.145 56.856 16.1 72.006 42.9 6.658 11.783 3.805 23.42-6.378 25.988-10.184 2.57-23.841-4.902-30.501-16.684-2.798-4.948-10.266-9.398-14.799-8.819-4.533.583-7.22 6.332-5.326 11.396 2.587 6.92 11.448 15.454 20.831 24.488a822 822 0 0 1 5.919 5.74c31.322 30.787 67.866 78.065 76.497 118.428 6.573 30.731 1.208 58.754-14.717 76.885-12.075 13.767-29.958 21.859-51.694 23.423-21.733 1.567-45.191-3.554-67.833-14.807-16.715-8.308-35.555-21.603-51.693-36.478-13.259-12.22-31.117-31.384-40.905-53.287-13.401-29.991-22.122-59.914-30.557-88.853q-1.141-3.919-2.284-7.824c-7.483-25.567-16.032-52.637-30.845-77.82-14.533-24.705-34.187-44.655-53.919-54.725-20.282-10.353-21.8-10.472-40.637-3.224-11.941 4.6-16.943 18.94-19.034 30.162-5.775 31.011 1.059 70.637 19.243 111.579 14.21 31.998 34.948 65.184 63.394 101.458 8.975 11.442 18.65 23.094 28.005 34.36 21.644 26.065 44.025 53.017 62.331 82.527 21.142 34.078 41.081 84.936 33.645 125.475-4.624 25.214-19.447 42.355-42.87 49.567-26.499 8.158-58.861 1.316-91.123-19.267-38.999-24.881-73.417-67.3-87.682-108.062-6.964-19.899-9.508-38.456-11.964-56.402-.636-4.63-1.234-9.005-1.91-13.425-5.414-35.44-15.612-71.863-30.309-108.254-14.977-37.087-28.408-62.18-45.272-64.102-10.283-1.169-15.55 13.833-14.534 28.408.943 13.522 4.715 28.224 8.71 43.787 1.743 6.798 3.547 13.829 5.134 20.872 4.743 21.056 9.687 51.714-2.096 74.755-5.958 11.658-16.517 20.096-29.73 23.756-14.963 4.146-32.215 1.763-48.581-6.711-11.982-6.204-19.972-19.615-17.845-29.959 2.124-10.345 13.563-13.698 25.546-7.495 11.82 6.119 24.903.167 29.71-9.23 5.48-10.72 5.486-27.017.017-51.286-1.426-6.337-3.06-12.708-4.793-19.454-4.337-16.907-8.824-34.39-10.042-51.876-1.286-18.412 3.02-37.011 14.078-48.353 7.715-7.911 18.713-12.29 33.393-10.618 17.607 2.008 43.672 11.894 67.847 47.603 13.584 20.061 22.771 42.81 28.85 57.863 16.241 40.219 27.514 80.479 33.499 119.661.729 4.761 1.378 9.51 2.008 14.102 2.238 16.34 4.353 31.775 9.616 46.811 9.525 27.221 33.355 56.631 59.297 73.183 13.322 8.497 33.255 17.382 52.564 11.435 13.803-4.249 22.201-14.045 24.966-29.113 4.362-23.784-5.696-59.911-25.625-92.037-15.775-25.426-35.629-49.336-56.651-74.652-9.675-11.652-19.678-23.7-29.277-35.937-31.988-40.789-55.509-78.567-71.912-115.496C112.352 49.66 104.134.876 111.35-37.865c3.077-16.525 9.209-29.565 18.038-38.618"/></g></g><defs><filter id="a" width="610.659" height="587.181" x="-48.946" y="-94.834" color-interpolation-filters="sRGB" filterUnits="userSpaceOnUse"><feFlood flood-opacity="0" result="BackgroundImageFix"/><feBlend in="SourceGraphic" in2="BackgroundImageFix" result="shape"/><feTurbulence baseFrequency="2 2" numOctaves="3" result="noise" seed="4291" stitchTiles="stitch" type="fractalNoise"/><feColorMatrix in="noise" result="alphaNoise" type="luminanceToAlpha"/><feComponentTransfer in="alphaNoise" result="coloredNoise1"><feFuncA tableValues="1 1 1 1 1 1 1 1 1 1 1 1 1 1 1 1 1 1 1 1 1 1 1 1 1 1 1 1 1 1 1 1 1 1 1 1 1 1 1 1 1 1 1 1 1 1 1 1 1 1 1 0 0 0 0 0 0 0 0 0 0 0 0 0 0 0 0 0 0 0 0 0 0 0 0 0 0 0 0 0 0 0 0 0 0 0 0 0 0 0 0 0 0 0 0 0 0 0 0 0" type="discrete"/></feComponentTransfer><feComposite in="coloredNoise1" in2="shape" operator="in" result="noise1Clipped"/><feFlood flood-color="rgba(0, 0, 0, 0.25)" result="color1Flood"/><feComposite in="color1Flood" in2="noise1Clipped" operator="in" result="color1"/><feMerge result="effect1_noise_919_4868"><feMergeNode in="shape"/><feMergeNode in="color1"/></feMerge></filter></defs></svg>