<svg xmlns="http://www.w3.org/2000/svg" width="38" height="10" fill="none"><mask id="a" width="38" height="10" x="0" y="0" maskUnits="userSpaceOnUse" style="mask-type:luminance"><path fill="#fff" d="M37.804 0H0v9.073h37.804z"/></mask><g mask="url(#a)"><mask id="b" width="201" height="182" x="-123" y="-158" maskUnits="userSpaceOnUse" style="mask-type:luminance"><path fill="#fff" d="M77.83-49.93-68.998-157.512l-53.959 73.643L23.872 23.712z"/></mask><g mask="url(#b)"><mask id="c" width="201" height="182" x="-123" y="-158" maskUnits="userSpaceOnUse" style="mask-type:luminance"><path fill="#fff" d="M77.83-49.93-68.998-157.512l-53.959 73.643L23.872 23.712z"/></mask><g mask="url(#c)"><path fill="#FFBF00" d="M.98.393c1.671.289 3.39.384 5.076.61 5.364.57 10.7 1.348 16.073 1.814 3.919.31 7.847.511 11.766.84.966.117 1.988.058 2.91.404.581.233.708.957.303 1.406-.26.321-.732.398-1.113.466-1.187.183-2.398.13-3.594.177-4.448.145-8.816.248-13.294.36 5.184.66 10.4 1.525 15.559 2.089-8.287.626-16.51-.762-24.714-1.749-2.906-.425-6.046.015-8.952-.437-.765-.212-.629-1.385.148-1.444 2.215-.198 4.456.06 6.669.2 6.937-.008 13.768-.173 20.727-.389-8.332-.476-16.664-1.229-24.738-3.464C2.899.989 1.72.803.974.393z"/></g></g></g></svg>