<svg xmlns="http://www.w3.org/2000/svg" width="35" height="26" fill="none"><mask id="a" width="36" height="26" x="-1" y="0" maskUnits="userSpaceOnUse" style="mask-type:luminance"><path fill="#fff" d="M34.779 0H-.001v25.706h34.78z"/></mask><g mask="url(#a)"><mask id="b" width="202" height="182" x="-105" y="-101" maskUnits="userSpaceOnUse" style="mask-type:luminance"><path fill="#fff" d="m96.732 6.774-146.828-107.58-53.959 73.643L42.774 80.417z"/></mask><g mask="url(#b)"><mask id="c" width="202" height="182" x="-105" y="-101" maskUnits="userSpaceOnUse" style="mask-type:luminance"><path fill="#fff" d="m96.732 6.774-146.828-107.58-53.959 73.643L42.774 80.417z"/></mask><g mask="url(#c)"><path fill="#FFBF00" d="M15.274 11.904c4.114-2.891 8.216-5.797 12.336-8.677 1.415-.954 2.753-2.023 4.162-2.977.702-.39 1.429.464.948 1.096C28.76 5.3 24.11 8.52 19.686 11.943c3.665-2.204 7.51-4.07 11.294-6.058 1.116-.523 2.463-1.388 3.544-1.692C31.73 5.997 29.122 8.12 26.222 9.8c-5.467 3.282-11.04 6.365-16.282 10.007-2.758 1.86-5.62 3.883-8.532 5.56-.774.34-1.406-.773-.73-1.272 2.776-2.088 5.653-4.05 8.453-6.11-2.898 1.904-4.71 3.089-7.629 4.654 4.525-3.58 8.97-7.455 13.772-10.736"/></g></g></g></svg>